<mxfile host="app.diagrams.net" modified="2021-10-29T18:31:31.210Z" agent="5.0 (X11)" etag="xRUk3N5cBDaxfgfjrGki" version="15.5.9" type="github">
  <diagram id="deZTbNNg9LpsPU7EslgX" name="Page-1">
    <mxGraphModel dx="1422" dy="764" grid="1" gridSize="10" guides="1" tooltips="1" connect="1" arrows="1" fold="1" page="1" pageScale="1" pageWidth="850" pageHeight="1100" math="0" shadow="0">
      <root>
        <mxCell id="0" />
        <mxCell id="1" parent="0" />
        <mxCell id="aF1CnZQHpzcb5Xxu2y9p-5" value="-" style="ellipse;whiteSpace=wrap;html=1;aspect=fixed;fontSize=23;" vertex="1" parent="1">
          <mxGeometry x="415" y="210" width="40" height="40" as="geometry" />
        </mxCell>
        <mxCell id="aF1CnZQHpzcb5Xxu2y9p-6" value="/" style="ellipse;whiteSpace=wrap;html=1;aspect=fixed;fontSize=23;" vertex="1" parent="1">
          <mxGeometry x="515" y="310" width="40" height="40" as="geometry" />
        </mxCell>
        <mxCell id="aF1CnZQHpzcb5Xxu2y9p-7" value="-" style="ellipse;whiteSpace=wrap;html=1;aspect=fixed;fontSize=23;" vertex="1" parent="1">
          <mxGeometry x="315" y="310" width="40" height="40" as="geometry" />
        </mxCell>
        <mxCell id="aF1CnZQHpzcb5Xxu2y9p-8" value="" style="endArrow=classic;html=1;rounded=0;entryX=1;entryY=0;entryDx=0;entryDy=0;exitX=0;exitY=1;exitDx=0;exitDy=0;fontSize=23;" edge="1" parent="1" source="aF1CnZQHpzcb5Xxu2y9p-5" target="aF1CnZQHpzcb5Xxu2y9p-7">
          <mxGeometry width="50" height="50" relative="1" as="geometry">
            <mxPoint x="355" y="510" as="sourcePoint" />
            <mxPoint x="405" y="460" as="targetPoint" />
          </mxGeometry>
        </mxCell>
        <mxCell id="aF1CnZQHpzcb5Xxu2y9p-9" value="" style="endArrow=classic;html=1;rounded=0;exitX=1;exitY=1;exitDx=0;exitDy=0;entryX=0;entryY=0;entryDx=0;entryDy=0;fontSize=23;" edge="1" parent="1" source="aF1CnZQHpzcb5Xxu2y9p-5" target="aF1CnZQHpzcb5Xxu2y9p-6">
          <mxGeometry width="50" height="50" relative="1" as="geometry">
            <mxPoint x="475" y="590" as="sourcePoint" />
            <mxPoint x="525" y="540" as="targetPoint" />
          </mxGeometry>
        </mxCell>
        <mxCell id="aF1CnZQHpzcb5Xxu2y9p-21" value="+" style="ellipse;whiteSpace=wrap;html=1;aspect=fixed;fontSize=23;" vertex="1" parent="1">
          <mxGeometry x="215" y="430" width="40" height="40" as="geometry" />
        </mxCell>
        <mxCell id="aF1CnZQHpzcb5Xxu2y9p-22" value="-" style="ellipse;whiteSpace=wrap;html=1;aspect=fixed;fontSize=23;" vertex="1" parent="1">
          <mxGeometry x="415" y="430" width="40" height="40" as="geometry" />
        </mxCell>
        <mxCell id="aF1CnZQHpzcb5Xxu2y9p-24" value="f" style="rhombus;whiteSpace=wrap;html=1;fontSize=23;" vertex="1" parent="1">
          <mxGeometry x="455" y="370" width="40" height="40" as="geometry" />
        </mxCell>
        <mxCell id="aF1CnZQHpzcb5Xxu2y9p-25" value="t" style="rhombus;whiteSpace=wrap;html=1;fontSize=23;" vertex="1" parent="1">
          <mxGeometry x="575" y="370" width="40" height="40" as="geometry" />
        </mxCell>
        <mxCell id="aF1CnZQHpzcb5Xxu2y9p-26" value="v" style="rhombus;whiteSpace=wrap;html=1;fontSize=23;" vertex="1" parent="1">
          <mxGeometry x="155" y="490" width="40" height="40" as="geometry" />
        </mxCell>
        <mxCell id="aF1CnZQHpzcb5Xxu2y9p-27" value="b" style="rhombus;whiteSpace=wrap;html=1;fontSize=23;" vertex="1" parent="1">
          <mxGeometry x="275" y="490" width="40" height="40" as="geometry" />
        </mxCell>
        <mxCell id="aF1CnZQHpzcb5Xxu2y9p-28" value="" style="endArrow=classic;html=1;rounded=0;fontSize=23;exitX=1;exitY=1;exitDx=0;exitDy=0;entryX=0;entryY=0;entryDx=0;entryDy=0;" edge="1" parent="1" source="aF1CnZQHpzcb5Xxu2y9p-7" target="aF1CnZQHpzcb5Xxu2y9p-22">
          <mxGeometry width="50" height="50" relative="1" as="geometry">
            <mxPoint x="410" y="470" as="sourcePoint" />
            <mxPoint x="460" y="420" as="targetPoint" />
          </mxGeometry>
        </mxCell>
        <mxCell id="aF1CnZQHpzcb5Xxu2y9p-29" value="" style="endArrow=classic;html=1;rounded=0;fontSize=23;exitX=0;exitY=1;exitDx=0;exitDy=0;entryX=1;entryY=0;entryDx=0;entryDy=0;" edge="1" parent="1" source="aF1CnZQHpzcb5Xxu2y9p-7" target="aF1CnZQHpzcb5Xxu2y9p-21">
          <mxGeometry width="50" height="50" relative="1" as="geometry">
            <mxPoint x="339.1421356237511" y="348.28213562375106" as="sourcePoint" />
            <mxPoint x="370.8578643762694" y="379.9978643762694" as="targetPoint" />
          </mxGeometry>
        </mxCell>
        <mxCell id="aF1CnZQHpzcb5Xxu2y9p-30" value="" style="endArrow=classic;html=1;rounded=0;fontSize=23;entryX=0;entryY=0;entryDx=0;entryDy=0;exitX=1;exitY=1;exitDx=0;exitDy=0;" edge="1" parent="1" source="aF1CnZQHpzcb5Xxu2y9p-6" target="aF1CnZQHpzcb5Xxu2y9p-25">
          <mxGeometry width="50" height="50" relative="1" as="geometry">
            <mxPoint x="445" y="490" as="sourcePoint" />
            <mxPoint x="495" y="440" as="targetPoint" />
          </mxGeometry>
        </mxCell>
        <mxCell id="aF1CnZQHpzcb5Xxu2y9p-31" value="" style="endArrow=classic;html=1;rounded=0;fontSize=23;entryX=0;entryY=0;entryDx=0;entryDy=0;exitX=1;exitY=1;exitDx=0;exitDy=0;" edge="1" parent="1" source="aF1CnZQHpzcb5Xxu2y9p-21" target="aF1CnZQHpzcb5Xxu2y9p-27">
          <mxGeometry width="50" height="50" relative="1" as="geometry">
            <mxPoint x="455" y="570" as="sourcePoint" />
            <mxPoint x="505" y="520" as="targetPoint" />
          </mxGeometry>
        </mxCell>
        <mxCell id="aF1CnZQHpzcb5Xxu2y9p-32" value="" style="endArrow=classic;html=1;rounded=0;fontSize=23;entryX=1;entryY=0;entryDx=0;entryDy=0;exitX=0;exitY=1;exitDx=0;exitDy=0;" edge="1" parent="1" source="aF1CnZQHpzcb5Xxu2y9p-21" target="aF1CnZQHpzcb5Xxu2y9p-26">
          <mxGeometry width="50" height="50" relative="1" as="geometry">
            <mxPoint x="265" y="610" as="sourcePoint" />
            <mxPoint x="315" y="560" as="targetPoint" />
          </mxGeometry>
        </mxCell>
        <mxCell id="aF1CnZQHpzcb5Xxu2y9p-33" value="" style="endArrow=classic;html=1;rounded=0;fontSize=23;exitX=0;exitY=1;exitDx=0;exitDy=0;entryX=1;entryY=0;entryDx=0;entryDy=0;" edge="1" parent="1" source="aF1CnZQHpzcb5Xxu2y9p-6" target="aF1CnZQHpzcb5Xxu2y9p-24">
          <mxGeometry width="50" height="50" relative="1" as="geometry">
            <mxPoint x="425" y="440" as="sourcePoint" />
            <mxPoint x="475" y="390" as="targetPoint" />
          </mxGeometry>
        </mxCell>
        <mxCell id="aF1CnZQHpzcb5Xxu2y9p-36" value="*" style="ellipse;whiteSpace=wrap;html=1;aspect=fixed;fontSize=23;" vertex="1" parent="1">
          <mxGeometry x="475" y="490" width="40" height="40" as="geometry" />
        </mxCell>
        <mxCell id="aF1CnZQHpzcb5Xxu2y9p-37" value="c" style="rhombus;whiteSpace=wrap;html=1;fontSize=23;" vertex="1" parent="1">
          <mxGeometry x="355" y="490" width="40" height="40" as="geometry" />
        </mxCell>
        <mxCell id="aF1CnZQHpzcb5Xxu2y9p-38" value="x" style="rhombus;whiteSpace=wrap;html=1;fontSize=23;" vertex="1" parent="1">
          <mxGeometry x="415" y="550" width="40" height="40" as="geometry" />
        </mxCell>
        <mxCell id="aF1CnZQHpzcb5Xxu2y9p-39" value="+" style="ellipse;whiteSpace=wrap;html=1;aspect=fixed;fontSize=23;" vertex="1" parent="1">
          <mxGeometry x="535" y="550" width="40" height="40" as="geometry" />
        </mxCell>
        <mxCell id="aF1CnZQHpzcb5Xxu2y9p-40" value="y" style="rhombus;whiteSpace=wrap;html=1;fontSize=23;" vertex="1" parent="1">
          <mxGeometry x="475" y="610" width="40" height="40" as="geometry" />
        </mxCell>
        <mxCell id="aF1CnZQHpzcb5Xxu2y9p-41" value="" style="endArrow=classic;html=1;rounded=0;fontSize=23;exitX=0;exitY=1;exitDx=0;exitDy=0;entryX=1;entryY=0;entryDx=0;entryDy=0;" edge="1" parent="1" source="aF1CnZQHpzcb5Xxu2y9p-22" target="aF1CnZQHpzcb5Xxu2y9p-37">
          <mxGeometry width="50" height="50" relative="1" as="geometry">
            <mxPoint x="425" y="600" as="sourcePoint" />
            <mxPoint x="475" y="550" as="targetPoint" />
          </mxGeometry>
        </mxCell>
        <mxCell id="aF1CnZQHpzcb5Xxu2y9p-43" value="" style="endArrow=classic;html=1;rounded=0;fontSize=23;exitX=0;exitY=1;exitDx=0;exitDy=0;entryX=1;entryY=0;entryDx=0;entryDy=0;" edge="1" parent="1" source="aF1CnZQHpzcb5Xxu2y9p-36" target="aF1CnZQHpzcb5Xxu2y9p-38">
          <mxGeometry width="50" height="50" relative="1" as="geometry">
            <mxPoint x="450" y="610" as="sourcePoint" />
            <mxPoint x="500" y="560" as="targetPoint" />
          </mxGeometry>
        </mxCell>
        <mxCell id="aF1CnZQHpzcb5Xxu2y9p-44" value="" style="endArrow=classic;html=1;rounded=0;fontSize=23;exitX=1;exitY=1;exitDx=0;exitDy=0;entryX=0;entryY=0;entryDx=0;entryDy=0;" edge="1" parent="1" source="aF1CnZQHpzcb5Xxu2y9p-22" target="aF1CnZQHpzcb5Xxu2y9p-36">
          <mxGeometry width="50" height="50" relative="1" as="geometry">
            <mxPoint x="345" y="680" as="sourcePoint" />
            <mxPoint x="395" y="630" as="targetPoint" />
          </mxGeometry>
        </mxCell>
        <mxCell id="aF1CnZQHpzcb5Xxu2y9p-45" value="" style="endArrow=classic;html=1;rounded=0;fontSize=23;exitX=1;exitY=1;exitDx=0;exitDy=0;entryX=0;entryY=0;entryDx=0;entryDy=0;" edge="1" parent="1" source="aF1CnZQHpzcb5Xxu2y9p-39" target="aF1CnZQHpzcb5Xxu2y9p-49">
          <mxGeometry width="50" height="50" relative="1" as="geometry">
            <mxPoint x="395" y="720" as="sourcePoint" />
            <mxPoint x="445" y="670" as="targetPoint" />
          </mxGeometry>
        </mxCell>
        <mxCell id="aF1CnZQHpzcb5Xxu2y9p-46" value="" style="endArrow=classic;html=1;rounded=0;fontSize=23;exitX=1;exitY=1;exitDx=0;exitDy=0;entryX=0;entryY=0;entryDx=0;entryDy=0;" edge="1" parent="1" source="aF1CnZQHpzcb5Xxu2y9p-36" target="aF1CnZQHpzcb5Xxu2y9p-39">
          <mxGeometry width="50" height="50" relative="1" as="geometry">
            <mxPoint x="270" y="690" as="sourcePoint" />
            <mxPoint x="320" y="640" as="targetPoint" />
          </mxGeometry>
        </mxCell>
        <mxCell id="aF1CnZQHpzcb5Xxu2y9p-47" value="" style="endArrow=classic;html=1;rounded=0;fontSize=23;exitX=0;exitY=1;exitDx=0;exitDy=0;entryX=1;entryY=0;entryDx=0;entryDy=0;" edge="1" parent="1" source="aF1CnZQHpzcb5Xxu2y9p-39" target="aF1CnZQHpzcb5Xxu2y9p-40">
          <mxGeometry width="50" height="50" relative="1" as="geometry">
            <mxPoint x="205" y="610" as="sourcePoint" />
            <mxPoint x="255" y="560" as="targetPoint" />
          </mxGeometry>
        </mxCell>
        <mxCell id="aF1CnZQHpzcb5Xxu2y9p-49" value="/" style="ellipse;whiteSpace=wrap;html=1;aspect=fixed;fontSize=23;" vertex="1" parent="1">
          <mxGeometry x="595" y="610" width="40" height="40" as="geometry" />
        </mxCell>
        <mxCell id="aF1CnZQHpzcb5Xxu2y9p-50" value="/" style="ellipse;whiteSpace=wrap;html=1;aspect=fixed;fontSize=23;" vertex="1" parent="1">
          <mxGeometry x="535" y="670" width="40" height="40" as="geometry" />
        </mxCell>
        <mxCell id="aF1CnZQHpzcb5Xxu2y9p-51" value="" style="endArrow=classic;html=1;rounded=0;fontSize=23;exitX=0;exitY=1;exitDx=0;exitDy=0;entryX=1;entryY=0;entryDx=0;entryDy=0;" edge="1" parent="1" source="aF1CnZQHpzcb5Xxu2y9p-49" target="aF1CnZQHpzcb5Xxu2y9p-50">
          <mxGeometry width="50" height="50" relative="1" as="geometry">
            <mxPoint x="685" y="760" as="sourcePoint" />
            <mxPoint x="735" y="710" as="targetPoint" />
          </mxGeometry>
        </mxCell>
        <mxCell id="aF1CnZQHpzcb5Xxu2y9p-52" value="k" style="rhombus;whiteSpace=wrap;html=1;fontSize=23;" vertex="1" parent="1">
          <mxGeometry x="475" y="730" width="40" height="40" as="geometry" />
        </mxCell>
        <mxCell id="aF1CnZQHpzcb5Xxu2y9p-53" value="" style="endArrow=classic;html=1;rounded=0;fontSize=23;exitX=0;exitY=1;exitDx=0;exitDy=0;entryX=1;entryY=0;entryDx=0;entryDy=0;" edge="1" parent="1" source="aF1CnZQHpzcb5Xxu2y9p-50" target="aF1CnZQHpzcb5Xxu2y9p-52">
          <mxGeometry width="50" height="50" relative="1" as="geometry">
            <mxPoint x="685" y="760" as="sourcePoint" />
            <mxPoint x="735" y="710" as="targetPoint" />
          </mxGeometry>
        </mxCell>
        <mxCell id="aF1CnZQHpzcb5Xxu2y9p-54" value="&lt;div style=&quot;font-size: 23px;&quot;&gt;+&lt;br style=&quot;font-size: 23px;&quot;&gt;&lt;/div&gt;" style="ellipse;whiteSpace=wrap;html=1;aspect=fixed;fontSize=23;" vertex="1" parent="1">
          <mxGeometry x="595" y="730" width="40" height="40" as="geometry" />
        </mxCell>
        <mxCell id="aF1CnZQHpzcb5Xxu2y9p-55" value="z" style="rhombus;whiteSpace=wrap;html=1;fontSize=23;" vertex="1" parent="1">
          <mxGeometry x="655" y="670" width="40" height="40" as="geometry" />
        </mxCell>
        <mxCell id="aF1CnZQHpzcb5Xxu2y9p-56" value="" style="endArrow=classic;html=1;rounded=0;fontSize=23;exitX=1;exitY=1;exitDx=0;exitDy=0;entryX=0;entryY=0;entryDx=0;entryDy=0;" edge="1" parent="1" source="aF1CnZQHpzcb5Xxu2y9p-49" target="aF1CnZQHpzcb5Xxu2y9p-55">
          <mxGeometry width="50" height="50" relative="1" as="geometry">
            <mxPoint x="685" y="760" as="sourcePoint" />
            <mxPoint x="735" y="710" as="targetPoint" />
          </mxGeometry>
        </mxCell>
        <mxCell id="aF1CnZQHpzcb5Xxu2y9p-57" value="" style="endArrow=classic;html=1;rounded=0;fontSize=23;exitX=1;exitY=1;exitDx=0;exitDy=0;entryX=0;entryY=0;entryDx=0;entryDy=0;" edge="1" parent="1" source="aF1CnZQHpzcb5Xxu2y9p-50" target="aF1CnZQHpzcb5Xxu2y9p-54">
          <mxGeometry width="50" height="50" relative="1" as="geometry">
            <mxPoint x="685" y="860" as="sourcePoint" />
            <mxPoint x="735" y="810" as="targetPoint" />
          </mxGeometry>
        </mxCell>
        <mxCell id="aF1CnZQHpzcb5Xxu2y9p-58" value="-" style="ellipse;whiteSpace=wrap;html=1;aspect=fixed;fontSize=23;" vertex="1" parent="1">
          <mxGeometry x="535" y="790" width="40" height="40" as="geometry" />
        </mxCell>
        <mxCell id="aF1CnZQHpzcb5Xxu2y9p-59" value="" style="endArrow=classic;html=1;rounded=0;fontSize=23;exitX=0;exitY=1;exitDx=0;exitDy=0;entryX=1;entryY=0;entryDx=0;entryDy=0;" edge="1" parent="1" source="aF1CnZQHpzcb5Xxu2y9p-54" target="aF1CnZQHpzcb5Xxu2y9p-58">
          <mxGeometry width="50" height="50" relative="1" as="geometry">
            <mxPoint x="685" y="860" as="sourcePoint" />
            <mxPoint x="735" y="810" as="targetPoint" />
          </mxGeometry>
        </mxCell>
        <mxCell id="aF1CnZQHpzcb5Xxu2y9p-60" value="d" style="rhombus;whiteSpace=wrap;html=1;fontSize=23;" vertex="1" parent="1">
          <mxGeometry x="655" y="790" width="40" height="40" as="geometry" />
        </mxCell>
        <mxCell id="aF1CnZQHpzcb5Xxu2y9p-61" value="" style="endArrow=classic;html=1;rounded=0;fontSize=23;exitX=1;exitY=1;exitDx=0;exitDy=0;entryX=0;entryY=0;entryDx=0;entryDy=0;" edge="1" parent="1" source="aF1CnZQHpzcb5Xxu2y9p-54" target="aF1CnZQHpzcb5Xxu2y9p-60">
          <mxGeometry width="50" height="50" relative="1" as="geometry">
            <mxPoint x="685" y="860" as="sourcePoint" />
            <mxPoint x="735" y="810" as="targetPoint" />
          </mxGeometry>
        </mxCell>
        <mxCell id="aF1CnZQHpzcb5Xxu2y9p-62" value="c" style="rhombus;whiteSpace=wrap;html=1;fontSize=23;" vertex="1" parent="1">
          <mxGeometry x="475" y="850" width="40" height="40" as="geometry" />
        </mxCell>
        <mxCell id="aF1CnZQHpzcb5Xxu2y9p-63" value="a" style="rhombus;whiteSpace=wrap;html=1;fontSize=23;" vertex="1" parent="1">
          <mxGeometry x="595" y="850" width="40" height="40" as="geometry" />
        </mxCell>
        <mxCell id="aF1CnZQHpzcb5Xxu2y9p-64" value="" style="endArrow=classic;html=1;rounded=0;fontSize=23;exitX=1;exitY=1;exitDx=0;exitDy=0;entryX=0;entryY=0;entryDx=0;entryDy=0;" edge="1" parent="1" source="aF1CnZQHpzcb5Xxu2y9p-58" target="aF1CnZQHpzcb5Xxu2y9p-63">
          <mxGeometry width="50" height="50" relative="1" as="geometry">
            <mxPoint x="685" y="860" as="sourcePoint" />
            <mxPoint x="735" y="810" as="targetPoint" />
          </mxGeometry>
        </mxCell>
        <mxCell id="aF1CnZQHpzcb5Xxu2y9p-65" value="" style="endArrow=classic;html=1;rounded=0;fontSize=23;exitX=0;exitY=1;exitDx=0;exitDy=0;entryX=1;entryY=0;entryDx=0;entryDy=0;" edge="1" parent="1" source="aF1CnZQHpzcb5Xxu2y9p-58" target="aF1CnZQHpzcb5Xxu2y9p-62">
          <mxGeometry width="50" height="50" relative="1" as="geometry">
            <mxPoint x="590" y="970" as="sourcePoint" />
            <mxPoint x="640" y="920" as="targetPoint" />
          </mxGeometry>
        </mxCell>
        <mxCell id="aF1CnZQHpzcb5Xxu2y9p-71" value="" style="endArrow=classic;html=1;fontSize=23;strokeColor=#FF0000;entryX=0;entryY=0;entryDx=0;entryDy=0;exitX=0;exitY=0;exitDx=0;exitDy=0;curved=1;" edge="1" parent="1" source="aF1CnZQHpzcb5Xxu2y9p-5" target="aF1CnZQHpzcb5Xxu2y9p-7">
          <mxGeometry width="50" height="50" relative="1" as="geometry">
            <mxPoint x="265" y="230" as="sourcePoint" />
            <mxPoint x="315" y="180" as="targetPoint" />
            <Array as="points">
              <mxPoint x="330" y="216" />
            </Array>
          </mxGeometry>
        </mxCell>
        <mxCell id="aF1CnZQHpzcb5Xxu2y9p-72" value="" style="endArrow=classic;html=1;fontSize=23;strokeColor=#FF0000;entryX=0;entryY=0;entryDx=0;entryDy=0;exitX=0;exitY=0;exitDx=0;exitDy=0;curved=1;" edge="1" parent="1" source="aF1CnZQHpzcb5Xxu2y9p-7" target="aF1CnZQHpzcb5Xxu2y9p-21">
          <mxGeometry width="50" height="50" relative="1" as="geometry">
            <mxPoint x="314.9978643762689" y="319.99786437626904" as="sourcePoint" />
            <mxPoint x="214.99786437626892" y="419.99786437626904" as="targetPoint" />
            <Array as="points">
              <mxPoint x="221" y="330" />
            </Array>
          </mxGeometry>
        </mxCell>
        <mxCell id="aF1CnZQHpzcb5Xxu2y9p-74" value="" style="endArrow=classic;html=1;fontSize=23;strokeColor=#FF0000;entryX=0;entryY=0;entryDx=0;entryDy=0;exitX=0;exitY=0;exitDx=0;exitDy=0;curved=1;" edge="1" parent="1">
          <mxGeometry width="50" height="50" relative="1" as="geometry">
            <mxPoint x="420.85786437626894" y="215.85786437626905" as="sourcePoint" />
            <mxPoint x="320.85786437626894" y="315.85786437626905" as="targetPoint" />
            <Array as="points">
              <mxPoint x="330" y="216" />
            </Array>
          </mxGeometry>
        </mxCell>
        <mxCell id="aF1CnZQHpzcb5Xxu2y9p-76" value="" style="endArrow=classic;html=1;fontSize=23;strokeColor=#FF0000;entryX=0;entryY=0;entryDx=0;entryDy=0;exitX=0;exitY=0;exitDx=0;exitDy=0;curved=1;" edge="1" parent="1" source="aF1CnZQHpzcb5Xxu2y9p-21" target="aF1CnZQHpzcb5Xxu2y9p-26">
          <mxGeometry width="50" height="50" relative="1" as="geometry">
            <mxPoint x="185.85786437626894" y="369.99786437626904" as="sourcePoint" />
            <mxPoint x="100" y="484.14" as="targetPoint" />
            <Array as="points">
              <mxPoint x="165" y="436" />
            </Array>
          </mxGeometry>
        </mxCell>
        <mxCell id="aF1CnZQHpzcb5Xxu2y9p-77" value="" style="endArrow=classic;html=1;fontSize=23;strokeColor=#FF0000;entryX=0;entryY=1;entryDx=0;entryDy=0;exitX=1;exitY=1;exitDx=0;exitDy=0;curved=1;" edge="1" parent="1" source="aF1CnZQHpzcb5Xxu2y9p-26" target="aF1CnZQHpzcb5Xxu2y9p-27">
          <mxGeometry width="50" height="50" relative="1" as="geometry">
            <mxPoint x="254.99786437626892" y="545.857864376269" as="sourcePoint" />
            <mxPoint x="199.14" y="610" as="targetPoint" />
            <Array as="points">
              <mxPoint x="230" y="560" />
            </Array>
          </mxGeometry>
        </mxCell>
        <mxCell id="aF1CnZQHpzcb5Xxu2y9p-78" value="" style="endArrow=classic;html=1;fontSize=23;strokeColor=#FF0000;entryX=1;entryY=0.5;entryDx=0;entryDy=0;exitX=1;exitY=0;exitDx=0;exitDy=0;curved=1;" edge="1" parent="1" source="aF1CnZQHpzcb5Xxu2y9p-27" target="aF1CnZQHpzcb5Xxu2y9p-21">
          <mxGeometry width="50" height="50" relative="1" as="geometry">
            <mxPoint x="362.92786437626893" y="417.92786437626904" as="sourcePoint" />
            <mxPoint x="307.07" y="482.07" as="targetPoint" />
            <Array as="points">
              <mxPoint x="320" y="440" />
            </Array>
          </mxGeometry>
        </mxCell>
        <mxCell id="aF1CnZQHpzcb5Xxu2y9p-79" value="" style="endArrow=classic;html=1;fontSize=23;strokeColor=#FF0000;entryX=0;entryY=0.5;entryDx=0;entryDy=0;exitX=1;exitY=0.5;exitDx=0;exitDy=0;curved=1;" edge="1" parent="1" source="aF1CnZQHpzcb5Xxu2y9p-21" target="aF1CnZQHpzcb5Xxu2y9p-22">
          <mxGeometry width="50" height="50" relative="1" as="geometry">
            <mxPoint x="352.5" y="450" as="sourcePoint" />
            <mxPoint x="302.5" y="400" as="targetPoint" />
            <Array as="points">
              <mxPoint x="330" y="390" />
            </Array>
          </mxGeometry>
        </mxCell>
        <mxCell id="aF1CnZQHpzcb5Xxu2y9p-80" value="" style="endArrow=classic;html=1;fontSize=23;strokeColor=#FF0000;entryX=0;entryY=0;entryDx=0;entryDy=0;exitX=0;exitY=0.5;exitDx=0;exitDy=0;curved=1;" edge="1" parent="1" source="aF1CnZQHpzcb5Xxu2y9p-22" target="aF1CnZQHpzcb5Xxu2y9p-37">
          <mxGeometry width="50" height="50" relative="1" as="geometry">
            <mxPoint x="365" y="620" as="sourcePoint" />
            <mxPoint x="315" y="570" as="targetPoint" />
            <Array as="points">
              <mxPoint x="360" y="450" />
            </Array>
          </mxGeometry>
        </mxCell>
        <mxCell id="aF1CnZQHpzcb5Xxu2y9p-81" value="" style="endArrow=classic;html=1;fontSize=23;strokeColor=#FF0000;entryX=0;entryY=0.5;entryDx=0;entryDy=0;exitX=1;exitY=0.5;exitDx=0;exitDy=0;curved=1;" edge="1" parent="1" source="aF1CnZQHpzcb5Xxu2y9p-37" target="aF1CnZQHpzcb5Xxu2y9p-36">
          <mxGeometry width="50" height="50" relative="1" as="geometry">
            <mxPoint x="385" y="550" as="sourcePoint" />
            <mxPoint x="335" y="600" as="targetPoint" />
            <Array as="points">
              <mxPoint x="440" y="490" />
            </Array>
          </mxGeometry>
        </mxCell>
        <mxCell id="aF1CnZQHpzcb5Xxu2y9p-82" value="" style="endArrow=classic;html=1;fontSize=23;strokeColor=#FF0000;entryX=0;entryY=0;entryDx=0;entryDy=0;exitX=0;exitY=0.5;exitDx=0;exitDy=0;curved=1;" edge="1" parent="1" source="aF1CnZQHpzcb5Xxu2y9p-36" target="aF1CnZQHpzcb5Xxu2y9p-38">
          <mxGeometry width="50" height="50" relative="1" as="geometry">
            <mxPoint x="395" y="530" as="sourcePoint" />
            <mxPoint x="485" y="520" as="targetPoint" />
            <Array as="points">
              <mxPoint x="425" y="510" />
            </Array>
          </mxGeometry>
        </mxCell>
        <mxCell id="aF1CnZQHpzcb5Xxu2y9p-85" value="" style="endArrow=classic;html=1;fontSize=23;strokeColor=#FF0000;entryX=0;entryY=0.5;entryDx=0;entryDy=0;exitX=1;exitY=0.5;exitDx=0;exitDy=0;curved=1;" edge="1" parent="1" source="aF1CnZQHpzcb5Xxu2y9p-38" target="aF1CnZQHpzcb5Xxu2y9p-39">
          <mxGeometry width="50" height="50" relative="1" as="geometry">
            <mxPoint x="445" y="580" as="sourcePoint" />
            <mxPoint x="535" y="570" as="targetPoint" />
            <Array as="points">
              <mxPoint x="490" y="540" />
            </Array>
          </mxGeometry>
        </mxCell>
        <mxCell id="aF1CnZQHpzcb5Xxu2y9p-86" value="" style="endArrow=classic;html=1;fontSize=23;strokeColor=#FF0000;entryX=0;entryY=0;entryDx=0;entryDy=0;exitX=0;exitY=0.5;exitDx=0;exitDy=0;curved=1;" edge="1" parent="1" source="aF1CnZQHpzcb5Xxu2y9p-39" target="aF1CnZQHpzcb5Xxu2y9p-40">
          <mxGeometry width="50" height="50" relative="1" as="geometry">
            <mxPoint x="535" y="570" as="sourcePoint" />
            <mxPoint x="485" y="620" as="targetPoint" />
            <Array as="points">
              <mxPoint x="485" y="580" />
            </Array>
          </mxGeometry>
        </mxCell>
        <mxCell id="aF1CnZQHpzcb5Xxu2y9p-87" value="" style="endArrow=classic;html=1;fontSize=23;strokeColor=#FF0000;entryX=0;entryY=0.5;entryDx=0;entryDy=0;exitX=1;exitY=0.5;exitDx=0;exitDy=0;curved=1;" edge="1" parent="1" source="aF1CnZQHpzcb5Xxu2y9p-40" target="aF1CnZQHpzcb5Xxu2y9p-49">
          <mxGeometry width="50" height="50" relative="1" as="geometry">
            <mxPoint x="505" y="650" as="sourcePoint" />
            <mxPoint x="595" y="640" as="targetPoint" />
            <Array as="points">
              <mxPoint x="550" y="600" />
            </Array>
          </mxGeometry>
        </mxCell>
        <mxCell id="aF1CnZQHpzcb5Xxu2y9p-89" value="" style="endArrow=classic;html=1;fontSize=23;strokeColor=#FF0000;entryX=0.5;entryY=0;entryDx=0;entryDy=0;exitX=0;exitY=0.5;exitDx=0;exitDy=0;curved=1;" edge="1" parent="1" source="aF1CnZQHpzcb5Xxu2y9p-49" target="aF1CnZQHpzcb5Xxu2y9p-50">
          <mxGeometry width="50" height="50" relative="1" as="geometry">
            <mxPoint x="395" y="680" as="sourcePoint" />
            <mxPoint x="475" y="680" as="targetPoint" />
            <Array as="points">
              <mxPoint x="550" y="630" />
            </Array>
          </mxGeometry>
        </mxCell>
        <mxCell id="aF1CnZQHpzcb5Xxu2y9p-90" value="" style="endArrow=classic;html=1;fontSize=23;strokeColor=#FF0000;entryX=0;entryY=0;entryDx=0;entryDy=0;exitX=0;exitY=0;exitDx=0;exitDy=0;curved=1;" edge="1" parent="1" source="aF1CnZQHpzcb5Xxu2y9p-50" target="aF1CnZQHpzcb5Xxu2y9p-52">
          <mxGeometry width="50" height="50" relative="1" as="geometry">
            <mxPoint x="520" y="670" as="sourcePoint" />
            <mxPoint x="480" y="710" as="targetPoint" />
            <Array as="points">
              <mxPoint x="485" y="680" />
            </Array>
          </mxGeometry>
        </mxCell>
        <mxCell id="aF1CnZQHpzcb5Xxu2y9p-91" value="" style="endArrow=classic;html=1;fontSize=23;strokeColor=#FF0000;entryX=0;entryY=0.5;entryDx=0;entryDy=0;exitX=1;exitY=0.5;exitDx=0;exitDy=0;curved=1;" edge="1" parent="1" source="aF1CnZQHpzcb5Xxu2y9p-52" target="aF1CnZQHpzcb5Xxu2y9p-54">
          <mxGeometry width="50" height="50" relative="1" as="geometry">
            <mxPoint x="534.997864376269" y="765.857864376269" as="sourcePoint" />
            <mxPoint x="479.14" y="830" as="targetPoint" />
            <Array as="points">
              <mxPoint x="550" y="730" />
            </Array>
          </mxGeometry>
        </mxCell>
        <mxCell id="aF1CnZQHpzcb5Xxu2y9p-92" value="" style="endArrow=classic;html=1;fontSize=23;strokeColor=#FF0000;entryX=0;entryY=0;entryDx=0;entryDy=0;exitX=0;exitY=0.5;exitDx=0;exitDy=0;curved=1;" edge="1" parent="1" source="aF1CnZQHpzcb5Xxu2y9p-54" target="aF1CnZQHpzcb5Xxu2y9p-58">
          <mxGeometry width="50" height="50" relative="1" as="geometry">
            <mxPoint x="450" y="800" as="sourcePoint" />
            <mxPoint x="530" y="800" as="targetPoint" />
            <Array as="points">
              <mxPoint x="530" y="740" />
            </Array>
          </mxGeometry>
        </mxCell>
        <mxCell id="aF1CnZQHpzcb5Xxu2y9p-93" value="" style="endArrow=classic;html=1;fontSize=23;strokeColor=#FF0000;entryX=0;entryY=0;entryDx=0;entryDy=0;exitX=0;exitY=0;exitDx=0;exitDy=0;curved=1;" edge="1" parent="1" source="aF1CnZQHpzcb5Xxu2y9p-58" target="aF1CnZQHpzcb5Xxu2y9p-62">
          <mxGeometry width="50" height="50" relative="1" as="geometry">
            <mxPoint x="515" y="790" as="sourcePoint" />
            <mxPoint x="475" y="830" as="targetPoint" />
            <Array as="points">
              <mxPoint x="475" y="790" />
            </Array>
          </mxGeometry>
        </mxCell>
        <mxCell id="aF1CnZQHpzcb5Xxu2y9p-97" value="" style="endArrow=classic;html=1;fontSize=23;strokeColor=#FF0000;entryX=0;entryY=1;entryDx=0;entryDy=0;exitX=1;exitY=1;exitDx=0;exitDy=0;curved=1;" edge="1" parent="1" source="aF1CnZQHpzcb5Xxu2y9p-62" target="aF1CnZQHpzcb5Xxu2y9p-63">
          <mxGeometry width="50" height="50" relative="1" as="geometry">
            <mxPoint x="554.9978643762694" y="935.8578643762692" as="sourcePoint" />
            <mxPoint x="499.14" y="1000" as="targetPoint" />
            <Array as="points">
              <mxPoint x="550" y="930" />
            </Array>
          </mxGeometry>
        </mxCell>
        <mxCell id="aF1CnZQHpzcb5Xxu2y9p-98" value="" style="endArrow=classic;html=1;fontSize=23;strokeColor=#FF0000;entryX=1;entryY=0.5;entryDx=0;entryDy=0;exitX=1;exitY=0;exitDx=0;exitDy=0;curved=1;" edge="1" parent="1" source="aF1CnZQHpzcb5Xxu2y9p-63" target="aF1CnZQHpzcb5Xxu2y9p-58">
          <mxGeometry width="50" height="50" relative="1" as="geometry">
            <mxPoint x="670" y="900" as="sourcePoint" />
            <mxPoint x="770" y="900" as="targetPoint" />
            <Array as="points">
              <mxPoint x="625" y="820" />
            </Array>
          </mxGeometry>
        </mxCell>
        <mxCell id="aF1CnZQHpzcb5Xxu2y9p-99" value="" style="endArrow=classic;html=1;fontSize=23;strokeColor=#FF0000;entryX=0;entryY=0.5;entryDx=0;entryDy=0;exitX=1;exitY=0.5;exitDx=0;exitDy=0;curved=1;" edge="1" parent="1" source="aF1CnZQHpzcb5Xxu2y9p-58" target="aF1CnZQHpzcb5Xxu2y9p-60">
          <mxGeometry width="50" height="50" relative="1" as="geometry">
            <mxPoint x="720" y="940" as="sourcePoint" />
            <mxPoint x="670" y="890" as="targetPoint" />
            <Array as="points">
              <mxPoint x="620" y="770" />
            </Array>
          </mxGeometry>
        </mxCell>
        <mxCell id="aF1CnZQHpzcb5Xxu2y9p-100" value="" style="endArrow=classic;html=1;fontSize=23;strokeColor=#FF0000;entryX=1;entryY=0;entryDx=0;entryDy=0;exitX=1;exitY=0;exitDx=0;exitDy=0;curved=1;" edge="1" parent="1" source="aF1CnZQHpzcb5Xxu2y9p-60" target="aF1CnZQHpzcb5Xxu2y9p-54">
          <mxGeometry width="50" height="50" relative="1" as="geometry">
            <mxPoint x="720" y="860" as="sourcePoint" />
            <mxPoint x="800" y="860" as="targetPoint" />
            <Array as="points">
              <mxPoint x="700" y="736" />
            </Array>
          </mxGeometry>
        </mxCell>
        <mxCell id="aF1CnZQHpzcb5Xxu2y9p-101" value="" style="endArrow=classic;html=1;fontSize=23;strokeColor=#FF0000;entryX=1;entryY=0.5;entryDx=0;entryDy=0;exitX=1;exitY=0;exitDx=0;exitDy=0;curved=1;" edge="1" parent="1" source="aF1CnZQHpzcb5Xxu2y9p-54" target="aF1CnZQHpzcb5Xxu2y9p-50">
          <mxGeometry width="50" height="50" relative="1" as="geometry">
            <mxPoint x="630.86" y="744.14" as="sourcePoint" />
            <mxPoint x="575.0021356237411" y="679.9978643762591" as="targetPoint" />
            <Array as="points">
              <mxPoint x="615" y="690" />
            </Array>
          </mxGeometry>
        </mxCell>
        <mxCell id="aF1CnZQHpzcb5Xxu2y9p-102" value="" style="endArrow=classic;html=1;fontSize=23;strokeColor=#FF0000;entryX=0;entryY=0.5;entryDx=0;entryDy=0;exitX=1;exitY=0.5;exitDx=0;exitDy=0;curved=1;" edge="1" parent="1" source="aF1CnZQHpzcb5Xxu2y9p-50" target="aF1CnZQHpzcb5Xxu2y9p-55">
          <mxGeometry width="50" height="50" relative="1" as="geometry">
            <mxPoint x="784.1421356237411" y="775.8578643762592" as="sourcePoint" />
            <mxPoint x="730" y="730" as="targetPoint" />
            <Array as="points">
              <mxPoint x="610" y="650" />
            </Array>
          </mxGeometry>
        </mxCell>
        <mxCell id="aF1CnZQHpzcb5Xxu2y9p-103" value="" style="endArrow=classic;html=1;fontSize=23;strokeColor=#FF0000;entryX=1;entryY=0;entryDx=0;entryDy=0;exitX=1;exitY=0;exitDx=0;exitDy=0;curved=1;" edge="1" parent="1" source="aF1CnZQHpzcb5Xxu2y9p-55" target="aF1CnZQHpzcb5Xxu2y9p-49">
          <mxGeometry width="50" height="50" relative="1" as="geometry">
            <mxPoint x="720" y="610" as="sourcePoint" />
            <mxPoint x="800" y="610" as="targetPoint" />
            <Array as="points">
              <mxPoint x="690" y="616" />
            </Array>
          </mxGeometry>
        </mxCell>
        <mxCell id="aF1CnZQHpzcb5Xxu2y9p-104" value="" style="endArrow=classic;html=1;fontSize=23;strokeColor=#FF0000;entryX=1;entryY=0;entryDx=0;entryDy=0;exitX=1;exitY=0;exitDx=0;exitDy=0;curved=1;" edge="1" parent="1" source="aF1CnZQHpzcb5Xxu2y9p-49" target="aF1CnZQHpzcb5Xxu2y9p-39">
          <mxGeometry width="50" height="50" relative="1" as="geometry">
            <mxPoint x="650.86" y="594.14" as="sourcePoint" />
            <mxPoint x="595.0021356237411" y="529.997864376259" as="targetPoint" />
            <Array as="points">
              <mxPoint x="655.86" y="530.14" />
            </Array>
          </mxGeometry>
        </mxCell>
        <mxCell id="aF1CnZQHpzcb5Xxu2y9p-105" value="" style="endArrow=classic;html=1;fontSize=23;strokeColor=#FF0000;entryX=1;entryY=0;entryDx=0;entryDy=0;exitX=1;exitY=0;exitDx=0;exitDy=0;curved=1;" edge="1" parent="1" source="aF1CnZQHpzcb5Xxu2y9p-39" target="aF1CnZQHpzcb5Xxu2y9p-36">
          <mxGeometry width="50" height="50" relative="1" as="geometry">
            <mxPoint x="570.86" y="529.9999999999999" as="sourcePoint" />
            <mxPoint x="515.0021356237411" y="465.85786437625904" as="targetPoint" />
            <Array as="points">
              <mxPoint x="590" y="480" />
            </Array>
          </mxGeometry>
        </mxCell>
        <mxCell id="aF1CnZQHpzcb5Xxu2y9p-106" value="" style="endArrow=classic;html=1;fontSize=23;strokeColor=#FF0000;entryX=1;entryY=0;entryDx=0;entryDy=0;exitX=1;exitY=0;exitDx=0;exitDy=0;curved=1;" edge="1" parent="1" source="aF1CnZQHpzcb5Xxu2y9p-36" target="aF1CnZQHpzcb5Xxu2y9p-22">
          <mxGeometry width="50" height="50" relative="1" as="geometry">
            <mxPoint x="515.0021356237311" y="485.85786437626905" as="sourcePoint" />
            <mxPoint x="455.0021356237311" y="425.85786437626905" as="targetPoint" />
            <Array as="points">
              <mxPoint x="509" y="436" />
            </Array>
          </mxGeometry>
        </mxCell>
        <mxCell id="aF1CnZQHpzcb5Xxu2y9p-107" value="" style="endArrow=classic;html=1;fontSize=23;strokeColor=#FF0000;entryX=1;entryY=0.5;entryDx=0;entryDy=0;exitX=1;exitY=0;exitDx=0;exitDy=0;curved=1;" edge="1" parent="1" source="aF1CnZQHpzcb5Xxu2y9p-22" target="aF1CnZQHpzcb5Xxu2y9p-7">
          <mxGeometry width="50" height="50" relative="1" as="geometry">
            <mxPoint x="440.0021356237311" y="369.99786437626904" as="sourcePoint" />
            <mxPoint x="380.0021356237311" y="309.99786437626904" as="targetPoint" />
            <Array as="points">
              <mxPoint x="440" y="350" />
            </Array>
          </mxGeometry>
        </mxCell>
        <mxCell id="aF1CnZQHpzcb5Xxu2y9p-108" value="" style="endArrow=classic;html=1;fontSize=23;strokeColor=#FF0000;entryX=0;entryY=0.5;entryDx=0;entryDy=0;exitX=1;exitY=0.5;exitDx=0;exitDy=0;curved=1;" edge="1" parent="1" source="aF1CnZQHpzcb5Xxu2y9p-7" target="aF1CnZQHpzcb5Xxu2y9p-6">
          <mxGeometry width="50" height="50" relative="1" as="geometry">
            <mxPoint x="495.0021356237311" y="385.85786437626905" as="sourcePoint" />
            <mxPoint x="400.86" y="280" as="targetPoint" />
            <Array as="points">
              <mxPoint x="440" y="280" />
            </Array>
          </mxGeometry>
        </mxCell>
        <mxCell id="aF1CnZQHpzcb5Xxu2y9p-109" value="" style="endArrow=classic;html=1;fontSize=23;strokeColor=#FF0000;entryX=0;entryY=0;entryDx=0;entryDy=0;exitX=0;exitY=0.5;exitDx=0;exitDy=0;curved=1;" edge="1" parent="1" source="aF1CnZQHpzcb5Xxu2y9p-6" target="aF1CnZQHpzcb5Xxu2y9p-24">
          <mxGeometry width="50" height="50" relative="1" as="geometry">
            <mxPoint x="575" y="300" as="sourcePoint" />
            <mxPoint x="735" y="300" as="targetPoint" />
            <Array as="points">
              <mxPoint x="465" y="330" />
            </Array>
          </mxGeometry>
        </mxCell>
        <mxCell id="aF1CnZQHpzcb5Xxu2y9p-110" value="" style="endArrow=classic;html=1;fontSize=23;strokeColor=#FF0000;entryX=0;entryY=1;entryDx=0;entryDy=0;exitX=1;exitY=1;exitDx=0;exitDy=0;curved=1;" edge="1" parent="1" source="aF1CnZQHpzcb5Xxu2y9p-24" target="aF1CnZQHpzcb5Xxu2y9p-25">
          <mxGeometry width="50" height="50" relative="1" as="geometry">
            <mxPoint x="565" y="400" as="sourcePoint" />
            <mxPoint x="515" y="450" as="targetPoint" />
            <Array as="points">
              <mxPoint x="540" y="440" />
            </Array>
          </mxGeometry>
        </mxCell>
        <mxCell id="aF1CnZQHpzcb5Xxu2y9p-111" value="" style="endArrow=classic;html=1;fontSize=23;strokeColor=#FF0000;entryX=1;entryY=0;entryDx=0;entryDy=0;exitX=1;exitY=0;exitDx=0;exitDy=0;curved=1;" edge="1" parent="1" source="aF1CnZQHpzcb5Xxu2y9p-25" target="aF1CnZQHpzcb5Xxu2y9p-6">
          <mxGeometry width="50" height="50" relative="1" as="geometry">
            <mxPoint x="655" y="360" as="sourcePoint" />
            <mxPoint x="755" y="360" as="targetPoint" />
            <Array as="points">
              <mxPoint x="630" y="310" />
            </Array>
          </mxGeometry>
        </mxCell>
        <mxCell id="aF1CnZQHpzcb5Xxu2y9p-112" value="" style="endArrow=classic;html=1;fontSize=23;strokeColor=#FF0000;entryX=1;entryY=0;entryDx=0;entryDy=0;exitX=0.879;exitY=0.067;exitDx=0;exitDy=0;curved=1;exitPerimeter=0;" edge="1" parent="1" source="aF1CnZQHpzcb5Xxu2y9p-6" target="aF1CnZQHpzcb5Xxu2y9p-5">
          <mxGeometry width="50" height="50" relative="1" as="geometry">
            <mxPoint x="565.86" y="265" as="sourcePoint" />
            <mxPoint x="510.0021356237311" y="200.85786437626905" as="targetPoint" />
            <Array as="points">
              <mxPoint x="580" y="195" />
            </Array>
          </mxGeometry>
        </mxCell>
      </root>
    </mxGraphModel>
  </diagram>
</mxfile>
